<?xml version="1.0" standalone="no"?>
<!DOCTYPE svg PUBLIC "-//W3C//DTD SVG 20010904//EN"
 "http://www.w3.org/TR/2001/REC-SVG-20010904/DTD/svg10.dtd">
<svg version="1.0" xmlns="http://www.w3.org/2000/svg"
 width="2083.000000pt" height="2083.000000pt" viewBox="0 0 2083.000000 2083.000000"
 preserveAspectRatio="xMidYMid meet">

<g transform="translate(0.000000,2083.000000) scale(0.100000,-0.100000)"
fill="#000000" stroke="none">
<path d="M8786 14404 c-329 -78 -602 -146 -606 -151 -4 -4 -99 -141 -212 -304
l-204 -295 22 -315 c12 -173 30 -408 38 -524 9 -115 19 -248 22 -295 3 -47 7
-95 10 -107 l4 -23 341 0 341 0 -6 63 c-3 34 -8 253 -12 487 -3 234 -9 430
-12 435 -4 6 -7 122 -7 258 l0 248 50 -58 c28 -32 68 -78 91 -102 l40 -44 105
23 c57 12 111 28 120 36 9 8 19 11 22 7 4 -3 7 -1 7 5 0 7 5 12 11 12 7 0 71
29 144 64 107 52 134 69 139 89 3 14 21 34 38 46 18 11 52 40 76 65 l42 44 -2
239 -3 238 -599 -141z"/>
<path d="M11440 14186 l0 -362 143 -29 c78 -16 151 -29 162 -29 23 0 116 43
127 58 5 7 8 6 8 -2 0 -10 4 -10 16 2 8 9 20 17 25 17 5 1 13 2 18 3 5 0 13 4
17 9 4 4 18 7 31 7 13 0 22 4 18 9 -3 5 4 12 15 16 11 3 20 11 20 17 0 6 13 8
29 6 17 -2 28 -1 26 3 -3 4 9 12 25 19 17 7 30 16 30 21 0 5 6 9 14 9 8 0 27
5 43 12 15 6 30 12 33 13 7 1 121 55 153 72 15 8 36 16 46 18 10 2 29 12 40
22 12 10 25 18 29 18 10 0 134 136 129 141 -4 4 -809 201 -1139 279 l-58 13 0
-362z"/>
<path d="M12649 14054 c-137 -132 -153 -150 -179 -194 -14 -24 -51 -83 -82
-132 -32 -49 -58 -92 -58 -97 0 -5 -7 -14 -16 -22 -8 -7 -26 -34 -39 -59 l-24
-47 35 -66 34 -66 -5 -158 c-15 -503 -16 -693 -3 -706 7 -7 43 -13 83 -14 38
-1 71 -6 73 -11 1 -5 16 -8 32 -6 18 2 30 -1 30 -8 0 -7 7 -3 15 8 9 11 13 13
10 4 -4 -12 9 -16 72 -18 42 -2 81 -6 86 -9 10 -6 101 -16 162 -17 22 -1 42
-4 45 -7 3 -3 17 -9 33 -13 24 -6 27 -4 27 21 0 16 5 82 10 148 42 497 80
1067 73 1078 -11 19 -295 421 -315 446 l-18 23 -81 -78z"/>
<path d="M7772 12198 c-49 -57 -166 -193 -261 -303 l-171 -200 293 -5 c160 -3
282 -6 270 -8 -13 -1 -26 -2 -30 -3 -5 0 -12 -4 -18 -9 -10 -8 -85 -25 -97
-22 -5 1 -8 -3 -8 -9 0 -5 -4 -8 -9 -4 -5 3 -12 1 -16 -4 -3 -5 -14 -8 -25 -6
-12 2 -18 0 -15 -6 4 -5 -1 -9 -9 -9 -24 0 -23 0 -61 -16 -19 -8 -35 -11 -35
-8 0 4 -7 1 -15 -6 -8 -7 -15 -9 -15 -4 0 4 -5 3 -12 -4 -7 -7 -22 -12 -35
-12 -13 0 -23 -5 -23 -11 0 -11 80 -110 279 -343 99 -117 102 -121 96 -160 -2
-23 -10 -120 -15 -216 -6 -96 -17 -272 -25 -390 -32 -487 -32 -469 9 -461 69
14 109 20 146 26 74 10 163 25 190 30 14 3 37 7 52 10 15 2 35 6 45 9 10 3 36
8 58 11 22 4 49 8 60 10 11 2 43 7 70 11 28 3 54 10 58 14 9 8 20 257 37 838
l12 382 -146 185 c-80 101 -146 187 -146 190 0 3 46 65 103 138 153 197 157
203 124 198 -4 0 -6 2 -5 6 8 30 -17 52 -85 76 -153 55 -529 187 -533 187 -2
0 -43 -46 -92 -102z"/>
<path d="M12770 12229 c-274 -97 -360 -131 -353 -143 3 -5 1 -6 -5 -2 -7 4
-24 -4 -39 -18 -15 -15 -33 -26 -40 -26 -7 0 -13 -3 -13 -7 0 -5 58 -82 128
-173 l128 -165 54 -3 c63 -2 140 -21 140 -33 0 -4 9 -6 20 -4 24 5 52 -4 46
-14 -2 -3 10 -7 27 -7 17 -1 33 -6 35 -12 2 -6 10 -8 18 -5 8 3 14 0 14 -7 0
-6 4 -9 9 -6 5 3 34 -3 65 -14 31 -10 56 -16 56 -12 0 4 4 1 8 -6 5 -7 22 -15
38 -18 16 -3 31 -8 34 -12 3 -4 14 -8 25 -9 40 -5 53 -9 67 -21 11 -9 17 -9
27 1 10 9 12 9 9 -3 -2 -9 6 -16 19 -18 16 -2 42 20 112 99 80 90 90 105 79
121 -23 32 -503 587 -508 586 -3 0 -93 -31 -200 -69z"/>
<path d="M12285 11203 c3 -65 10 -275 15 -468 6 -192 13 -416 16 -497 l6 -148
104 0 c70 0 104 4 104 11 0 8 4 8 14 0 10 -8 15 -8 18 -1 2 6 18 11 36 13 17
1 32 6 32 11 0 5 3 7 6 4 3 -4 17 0 31 7 15 8 31 11 36 8 5 -3 13 0 17 6 4 7
18 13 31 15 27 4 75 21 101 36 10 6 23 10 29 10 7 0 43 9 81 21 l70 20 -6 47
c-3 26 -8 97 -11 157 -3 61 -13 211 -21 334 -8 124 -14 242 -14 262 l0 37
-337 113 c-186 61 -343 114 -350 116 -9 4 -11 -24 -8 -114z"/>
<path d="M8135 9874 c-198 -75 -362 -137 -364 -140 -2 -2 20 -38 50 -81 103
-151 342 -488 353 -501 10 -10 61 45 249 267 131 154 240 287 243 295 7 17
-143 296 -159 296 -7 -1 -174 -62 -372 -136z"/>
<path d="M12313 9998 c-34 -43 -153 -280 -147 -290 5 -7 48 -61 96 -119 48
-59 88 -109 88 -111 0 -6 -198 0 -236 7 -21 4 -35 1 -44 -10 -7 -8 -16 -12
-21 -9 -5 3 -9 0 -9 -5 0 -6 -7 -11 -16 -11 -9 0 -12 -5 -8 -12 5 -7 3 -8 -5
-4 -7 5 -20 1 -29 -7 -26 -22 -79 -47 -86 -40 -3 4 -6 2 -6 -4 0 -6 -15 -16
-32 -24 -18 -7 -36 -17 -39 -22 -3 -4 -12 -9 -20 -10 -8 -2 -25 -10 -39 -20
-13 -9 -30 -17 -38 -17 -7 0 -11 -4 -8 -8 2 -4 -5 -9 -16 -9 -11 -1 -29 -10
-39 -19 -11 -9 -19 -13 -19 -8 0 5 -5 1 -11 -9 -7 -13 -17 -16 -32 -11 -12 3
-18 3 -14 -2 10 -10 -62 -46 -76 -37 -6 3 -7 1 -3 -5 4 -7 -7 -18 -28 -29
l-36 -17 0 -143 c0 -117 3 -143 14 -143 13 0 1136 263 1178 276 10 3 64 71
120 152 56 81 148 213 205 294 57 81 103 152 103 156 0 7 -380 153 -726 279
-6 2 -15 -2 -21 -9z"/>
<path d="M8943 9627 c-18 -12 -33 -28 -33 -36 0 -8 -6 -11 -16 -7 -8 3 -12 2
-9 -3 3 -6 -8 -18 -25 -27 -16 -10 -30 -22 -30 -26 0 -12 -62 -48 -72 -42 -4
3 -5 -2 -2 -11 5 -11 0 -18 -14 -22 -14 -3 -19 -10 -15 -20 4 -10 2 -14 -6
-12 -7 3 -38 -19 -68 -48 -30 -29 -59 -50 -65 -47 -6 4 -8 2 -5 -3 4 -6 0 -16
-8 -23 -8 -7 -15 -9 -15 -5 0 4 -9 -4 -21 -19 -11 -14 -25 -23 -31 -20 -6 4
-8 3 -5 -3 3 -5 -6 -18 -20 -29 -15 -10 -40 -34 -56 -51 -16 -18 -34 -30 -38
-27 -5 3 -9 1 -9 -4 0 -5 -9 -13 -20 -18 -11 -5 -16 -14 -12 -20 6 -10 212
-62 842 -213 l195 -47 3 359 c1 198 1 362 -1 363 -2 3 -412 85 -412 83 0 0
-15 -10 -32 -22z"/>
<path d="M7380 6990 l0 -510 175 0 175 0 0 185 0 185 155 0 155 0 0 -185 0
-185 175 0 175 0 0 510 0 510 -175 0 -175 0 0 -180 0 -180 -155 0 -155 0 0
180 0 180 -175 0 -175 0 0 -510z"/>
<path d="M8957 7493 c-3 -5 -93 -208 -200 -453 -107 -245 -206 -471 -220 -502
l-26 -58 178 0 178 0 28 75 c15 42 34 82 42 90 12 12 51 15 197 15 l183 0 34
-87 35 -88 178 -3 c166 -2 177 -1 172 15 -3 10 -102 239 -220 508 l-214 490
-170 3 c-94 1 -173 -1 -175 -5z m220 -465 c23 -62 41 -113 39 -115 -2 -2 -44
-2 -94 -1 l-90 3 46 118 c25 64 47 115 50 112 3 -3 25 -56 49 -117z"/>
<path d="M9870 6990 l0 -510 160 0 160 0 2 217 3 216 105 -171 105 -171 76 -1
77 0 111 187 111 186 0 -231 0 -232 155 0 155 0 0 510 0 510 -139 0 -140 0
-161 -271 c-143 -240 -163 -269 -174 -253 -7 11 -82 133 -166 272 l-153 252
-144 0 -143 0 0 -510z"/>
<path d="M11320 7370 l0 -130 220 0 c121 0 220 -4 220 -8 0 -5 -103 -129 -230
-276 l-230 -267 0 -105 0 -104 465 0 c428 1 464 2 450 17 -13 13 -16 35 -15
102 1 47 2 98 1 114 l-1 27 -226 0 c-134 0 -224 4 -222 9 3 9 73 92 310 369
59 68 105 129 101 135 -3 5 -1 7 4 4 24 -15 34 24 36 132 l2 111 -442 0 -443
0 0 -130z"/>
</g>
</svg>
