<svg xmlns="http://www.w3.org/2000/svg" version="1.1" xmlns:xlink="http://www.w3.org/1999/xlink" xmlns:svgjs="http://svgjs.dev/svgjs" width="1000" height="623" viewBox="0 0 1000 623"><g transform="matrix(1,0,0,1,-0.6060606060606233,0.2522267206477409)"><svg viewBox="0 0 396 247" data-background-color="#0a1627" preserveAspectRatio="xMidYMid meet" height="623" width="1000" xmlns="http://www.w3.org/2000/svg" xmlns:xlink="http://www.w3.org/1999/xlink"><g id="tight-bounds" transform="matrix(1,0,0,1,0.2400000000000091,-0.09999999999999432)"><svg viewBox="0 0 395.52 247.2" height="247.2" width="395.52"><g><svg></svg></g><g><svg viewBox="0 0 395.52 247.2" height="247.2" width="395.52"><mask id="18349d09-67ee-4b52-a354-0c8e8c5596d6"><rect width="395.52" height="247.2" fill="white"></rect><g transform="matrix(1,0,0,1,128.1114,37.08)" id="clone"><svg viewBox="0 0 139.2972 173.04" height="173.04" width="139.2972"><g><svg viewBox="0 0 139.2972 173.04" height="173.04" width="139.2972"><g><svg viewBox="0 0 139.2972 173.04" height="173.04" width="139.2972"><g><svg viewBox="0 0 139.2972 173.04" height="173.04" width="139.2972"><g id="SvgjsG1242"><svg viewBox="0 0 139.2972 173.04" height="173.04" width="139.2972" id="SvgjsSvg1241"><g><svg viewBox="0 0 139.2972 173.04" height="173.04" width="139.2972"><g transform="matrix(1,0,0,1,0,0)"><svg width="139.2972" viewBox="1.4000000953674316 -38 33.20000076293945 41" height="173.04" data-palette-color="#fe0039"><path d="M6.5-35L6.5-35Q7.35-35 7.95-34.43 8.55-33.85 8.55-32.95L8.55-32.95 8.55-2.05Q8.55-1.2 7.93-0.6 7.3 0 6.45 0L6.45 0Q5.5 0 4.95-0.6 4.4-1.2 4.4-2.05L4.4-2.05 4.4-32.95Q4.4-33.85 5-34.43 5.6-35 6.5-35ZM29.55-35L29.55-35Q30.45-35 31.03-34.43 31.6-33.85 31.6-32.95L31.6-32.95 31.6-2.05Q31.6-1.2 31-0.6 30.4 0 29.5 0L29.5 0Q28.65 0 28.05-0.6 27.45-1.2 27.45-2.05L27.45-2.05 27.45-32.95Q27.45-33.85 28.08-34.43 28.7-35 29.55-35ZM6.15-15.85L6.3-19.75 29.6-19.75 29.55-15.85 6.15-15.85Z" opacity="1" transform="matrix(1,0,0,1,0,0)" fill="black" class="wordmark-text-0" id="SvgjsPath1240" stroke-width="5" stroke="black" stroke-linejoin="round"></path></svg></g></svg></g></svg></g></svg></g></svg></g></svg></g></svg></g></mask><g mask="url(#18349d09-67ee-4b52-a354-0c8e8c5596d6)"><g><path xmlns="http://www.w3.org/2000/svg" d="M139.096 34.329v0c2.891 0 5.356 0.969 7.397 2.907 2.04 1.972 3.061 4.489 3.06 7.55v0 157.628c0 2.891-1.054 5.356-3.162 7.397-2.143 2.04-4.659 3.061-7.55 3.06v0c-3.231 0-5.781-1.02-7.652-3.06-1.87-2.04-2.806-4.506-2.806-7.397v0-157.628c0-3.061 1.02-5.577 3.061-7.55 2.04-1.938 4.591-2.908 7.652-2.907zM256.679 34.329v0c3.061 0 5.577 0.969 7.55 2.907 1.938 1.972 2.908 4.489 2.908 7.55v0 157.628c0 2.891-1.02 5.356-3.061 7.397-2.04 2.04-4.591 3.061-7.652 3.06v0c-2.891 0-5.356-1.02-7.397-3.06-2.04-2.04-3.061-4.506-3.06-7.397v0-157.628c0-3.061 1.071-5.577 3.213-7.55 2.108-1.938 4.608-2.908 7.499-2.907zM137.311 132.017l0.765-19.895h118.858l-0.255 19.895z" fill="#fe0039" fill-rule="nonzero" stroke="none" stroke-width="1" stroke-linecap="butt" stroke-linejoin="miter" stroke-miterlimit="10" stroke-dasharray="" stroke-dashoffset="0" font-family="none" font-weight="none" font-size="none" text-anchor="none" style="mix-blend-mode: normal" data-fill-palette-color="tertiary"></path></g></g><g transform="matrix(1,0,0,1,128.1114,37.08)"><svg viewBox="0 0 139.2972 173.04" height="173.04" width="139.2972"><g><svg viewBox="0 0 139.2972 173.04" height="173.04" width="139.2972"><g><svg viewBox="0 0 139.2972 173.04" height="173.04" width="139.2972"><g><svg viewBox="0 0 139.2972 173.04" height="173.04" width="139.2972"><g id="textblocktransform"><svg viewBox="0 0 139.2972 173.04" height="173.04" width="139.2972" id="textblock"><g><svg viewBox="0 0 139.2972 173.04" height="173.04" width="139.2972"><g transform="matrix(1,0,0,1,0,0)"><svg width="139.2972" viewBox="1.4000000953674316 -38 33.20000076293945 41" height="173.04" data-palette-color="#fe0039"><path d="M6.5-35L6.5-35Q7.35-35 7.95-34.43 8.55-33.85 8.55-32.95L8.55-32.95 8.55-2.05Q8.55-1.2 7.93-0.6 7.3 0 6.45 0L6.45 0Q5.5 0 4.95-0.6 4.4-1.2 4.4-2.05L4.4-2.05 4.4-32.95Q4.4-33.85 5-34.43 5.6-35 6.5-35ZM29.55-35L29.55-35Q30.45-35 31.03-34.43 31.6-33.85 31.6-32.95L31.6-32.95 31.6-2.05Q31.6-1.2 31-0.6 30.4 0 29.5 0L29.5 0Q28.65 0 28.05-0.6 27.45-1.2 27.45-2.05L27.45-2.05 27.45-32.95Q27.45-33.85 28.08-34.43 28.7-35 29.55-35ZM6.15-15.85L6.3-19.75 29.6-19.75 29.55-15.85 6.15-15.85Z" opacity="1" transform="matrix(1,0,0,1,0,0)" fill="#fe0039" class="wordmark-text-0" data-fill-palette-color="primary" id="text-0"></path></svg></g></svg></g></svg></g></svg></g></svg></g></svg></g></svg></g></svg></g><defs></defs></svg><rect width="395.52" height="247.2" fill="none" stroke="none" visibility="hidden"></rect></g></svg></g></svg>